<?xml version="1.0" encoding="UTF-8" standalone="no"?>
<!-- Created with Inkscape (http://www.inkscape.org/) -->

<svg
   width="103.56532mm"
   height="26.726721mm"
   viewBox="0 0 103.56532 26.726721"
   version="1.1"
   id="svg1"
   inkscape:version="1.3.2 (091e20e, 2023-11-25, custom)"
   sodipodi:docname="hydriia_logo.svg"
   xmlns:inkscape="http://www.inkscape.org/namespaces/inkscape"
   xmlns:sodipodi="http://sodipodi.sourceforge.net/DTD/sodipodi-0.dtd"
   xmlns="http://www.w3.org/2000/svg"
   xmlns:svg="http://www.w3.org/2000/svg">
  <sodipodi:namedview
     id="namedview1"
     pagecolor="#ffffff"
     bordercolor="#000000"
     borderopacity="0.25"
     inkscape:showpageshadow="2"
     inkscape:pageopacity="0.0"
     inkscape:pagecheckerboard="0"
     inkscape:deskcolor="#d1d1d1"
     inkscape:document-units="mm"
     inkscape:zoom="1.5875"
     inkscape:cx="337.6378"
     inkscape:cy="8.503937"
     inkscape:window-width="1920"
     inkscape:window-height="1009"
     inkscape:window-x="3832"
     inkscape:window-y="-8"
     inkscape:window-maximized="1"
     inkscape:current-layer="layer1" />
  <defs
     id="defs1">
    <clipPath
       clipPathUnits="userSpaceOnUse"
       id="clipPath2">
      <path
         d="M 0,76.612 H 293.571 V 0 H 0 Z"
         transform="translate(-292.71181,-19.5942)"
         id="path2" />
    </clipPath>
    <clipPath
       clipPathUnits="userSpaceOnUse"
       id="clipPath4">
      <path
         d="M 0,76.612 H 293.571 V 0 H 0 Z"
         transform="translate(-68.429702,-24.001)"
         id="path4" />
    </clipPath>
    <clipPath
       clipPathUnits="userSpaceOnUse"
       id="clipPath6">
      <path
         d="M 0,76.612 H 293.571 V 0 H 0 Z"
         transform="translate(-116.2069,-34.618401)"
         id="path6" />
    </clipPath>
    <clipPath
       clipPathUnits="userSpaceOnUse"
       id="clipPath8">
      <path
         d="M 0,76.612 H 293.571 V 0 H 0 Z"
         transform="translate(-168.78351,-54.762001)"
         id="path8" />
    </clipPath>
    <clipPath
       clipPathUnits="userSpaceOnUse"
       id="clipPath10">
      <path
         d="M 0,76.612 H 293.571 V 0 H 0 Z"
         id="path10" />
    </clipPath>
    <clipPath
       clipPathUnits="userSpaceOnUse"
       id="clipPath12">
      <path
         d="M 0,76.612 H 293.571 V 0 H 0 Z"
         transform="translate(-203.90721,-70.181902)"
         id="path12" />
    </clipPath>
    <clipPath
       clipPathUnits="userSpaceOnUse"
       id="clipPath14">
      <path
         d="M 0,76.612 H 293.571 V 0 H 0 Z"
         id="path14" />
    </clipPath>
    <clipPath
       clipPathUnits="userSpaceOnUse"
       id="clipPath16">
      <path
         d="M 0,76.612 H 293.571 V 0 H 0 Z"
         transform="translate(-226.59531,-70.181902)"
         id="path16" />
    </clipPath>
    <clipPath
       clipPathUnits="userSpaceOnUse"
       id="clipPath18">
      <path
         d="M 0,76.612 H 293.571 V 0 H 0 Z"
         transform="translate(0,-24.001)"
         id="path18" />
    </clipPath>
    <clipPath
       clipPathUnits="userSpaceOnUse"
       id="clipPath20">
      <path
         d="M 0,76.612 H 293.571 V 0 H 0 Z"
         transform="translate(-69.353602,-12.0324)"
         id="path20" />
    </clipPath>
    <clipPath
       clipPathUnits="userSpaceOnUse"
       id="clipPath22">
      <path
         d="M 0,76.612 H 293.571 V 0 H 0 Z"
         transform="translate(-74.241302,-16.425801)"
         id="path22" />
    </clipPath>
    <clipPath
       clipPathUnits="userSpaceOnUse"
       id="clipPath24">
      <path
         d="M 0,76.612 H 293.571 V 0 H 0 Z"
         id="path24" />
    </clipPath>
    <clipPath
       clipPathUnits="userSpaceOnUse"
       id="clipPath26">
      <path
         d="M 0,76.612 H 293.571 V 0 H 0 Z"
         transform="translate(-80.267905,-12.0324)"
         id="path26" />
    </clipPath>
    <clipPath
       clipPathUnits="userSpaceOnUse"
       id="clipPath28">
      <path
         d="M 0,76.612 H 293.571 V 0 H 0 Z"
         transform="translate(-90.8953,-12.0324)"
         id="path28" />
    </clipPath>
    <clipPath
       clipPathUnits="userSpaceOnUse"
       id="clipPath30">
      <path
         d="M 0,76.612 H 293.571 V 0 H 0 Z"
         transform="translate(-94.4026,-16.483401)"
         id="path30" />
    </clipPath>
    <clipPath
       clipPathUnits="userSpaceOnUse"
       id="clipPath32">
      <path
         d="M 0,76.612 H 293.571 V 0 H 0 Z"
         id="path32" />
    </clipPath>
    <clipPath
       clipPathUnits="userSpaceOnUse"
       id="clipPath34">
      <path
         d="M 0,76.612 H 293.571 V 0 H 0 Z"
         id="path34" />
    </clipPath>
    <clipPath
       clipPathUnits="userSpaceOnUse"
       id="clipPath36">
      <path
         d="M 0,76.612 H 293.571 V 0 H 0 Z"
         id="path36" />
    </clipPath>
    <clipPath
       clipPathUnits="userSpaceOnUse"
       id="clipPath38">
      <path
         d="M 0,76.612 H 293.571 V 0 H 0 Z"
         transform="translate(-110.3311,-13.9416)"
         id="path38" />
    </clipPath>
    <clipPath
       clipPathUnits="userSpaceOnUse"
       id="clipPath40">
      <path
         d="M 0,76.612 H 293.571 V 0 H 0 Z"
         transform="translate(-117.07131,-16.483401)"
         id="path40" />
    </clipPath>
    <clipPath
       clipPathUnits="userSpaceOnUse"
       id="clipPath42">
      <path
         d="M 0,76.612 H 293.571 V 0 H 0 Z"
         transform="translate(-121.00431,-12.0324)"
         id="path42" />
    </clipPath>
    <clipPath
       clipPathUnits="userSpaceOnUse"
       id="clipPath44">
      <path
         d="M 0,76.612 H 293.571 V 0 H 0 Z"
         transform="translate(-130.55001,-11.9404)"
         id="path44" />
    </clipPath>
    <clipPath
       clipPathUnits="userSpaceOnUse"
       id="clipPath46">
      <path
         d="M 0,76.612 H 293.571 V 0 H 0 Z"
         transform="translate(-136.4619,-16.483401)"
         id="path46" />
    </clipPath>
    <clipPath
       clipPathUnits="userSpaceOnUse"
       id="clipPath48">
      <path
         d="M 0,76.612 H 293.571 V 0 H 0 Z"
         transform="translate(-145.6624,-16.2879)"
         id="path48" />
    </clipPath>
    <clipPath
       clipPathUnits="userSpaceOnUse"
       id="clipPath50">
      <path
         d="M 0,76.612 H 293.571 V 0 H 0 Z"
         transform="translate(-152.3104,-16.483401)"
         id="path50" />
    </clipPath>
    <clipPath
       clipPathUnits="userSpaceOnUse"
       id="clipPath52">
      <path
         d="M 0,76.612 H 293.571 V 0 H 0 Z"
         transform="translate(-158.1523,-11.9404)"
         id="path52" />
    </clipPath>
    <clipPath
       clipPathUnits="userSpaceOnUse"
       id="clipPath54">
      <path
         d="M 0,76.612 H 293.571 V 0 H 0 Z"
         transform="translate(-163.79961,-12.0324)"
         id="path54" />
    </clipPath>
    <clipPath
       clipPathUnits="userSpaceOnUse"
       id="clipPath56">
      <path
         d="M 0,76.612 H 293.571 V 0 H 0 Z"
         transform="translate(-171.3211,-20.198301)"
         id="path56" />
    </clipPath>
    <clipPath
       clipPathUnits="userSpaceOnUse"
       id="clipPath58">
      <path
         d="M 0,76.612 H 293.571 V 0 H 0 Z"
         transform="translate(-176.6457,-11.9404)"
         id="path58" />
    </clipPath>
    <clipPath
       clipPathUnits="userSpaceOnUse"
       id="clipPath60">
      <path
         d="M 0,76.612 H 293.571 V 0 H 0 Z"
         transform="translate(-182.3395,-16.483401)"
         id="path60" />
    </clipPath>
    <clipPath
       clipPathUnits="userSpaceOnUse"
       id="clipPath62">
      <path
         d="M 0,76.612 H 293.571 V 0 H 0 Z"
         transform="translate(-189.0327,-13.527501)"
         id="path62" />
    </clipPath>
    <clipPath
       clipPathUnits="userSpaceOnUse"
       id="clipPath64">
      <path
         d="M 0,76.612 H 293.571 V 0 H 0 Z"
         transform="translate(-196.8882,-12.0324)"
         id="path64" />
    </clipPath>
    <clipPath
       clipPathUnits="userSpaceOnUse"
       id="clipPath66">
      <path
         d="M 0,76.612 H 293.571 V 0 H 0 Z"
         transform="translate(-199.33731,-12.0324)"
         id="path66" />
    </clipPath>
    <clipPath
       clipPathUnits="userSpaceOnUse"
       id="clipPath68">
      <path
         d="M 0,76.612 H 293.571 V 0 H 0 Z"
         transform="translate(-211.7125,-16.2879)"
         id="path68" />
    </clipPath>
    <clipPath
       clipPathUnits="userSpaceOnUse"
       id="clipPath70">
      <path
         d="M 0,76.612 H 293.571 V 0 H 0 Z"
         transform="translate(-215.93301,-16.425801)"
         id="path70" />
    </clipPath>
    <clipPath
       clipPathUnits="userSpaceOnUse"
       id="clipPath72">
      <path
         d="M 0,76.612 H 293.571 V 0 H 0 Z"
         transform="translate(-221.02831,-16.483401)"
         id="path72" />
    </clipPath>
    <clipPath
       clipPathUnits="userSpaceOnUse"
       id="clipPath74">
      <path
         d="M 0,76.612 H 293.571 V 0 H 0 Z"
         transform="translate(-227.72211,-13.527501)"
         id="path74" />
    </clipPath>
    <clipPath
       clipPathUnits="userSpaceOnUse"
       id="clipPath76">
      <path
         d="M 0,76.612 H 293.571 V 0 H 0 Z"
         transform="translate(-235.57701,-12.0324)"
         id="path76" />
    </clipPath>
    <clipPath
       clipPathUnits="userSpaceOnUse"
       id="clipPath78">
      <path
         d="M 0,76.612 H 293.571 V 0 H 0 Z"
         transform="translate(-254.88331,-24.001)"
         id="path78" />
    </clipPath>
  </defs>
  <g
     inkscape:label="Calque 1"
     inkscape:groupmode="layer"
     id="layer1"
     transform="translate(-50.12917,-27.258333)">
    <path
       id="path1"
       d="m 0,0 c -7.459,-25.7 -41.733,-25.342 -49.202,0 h 11.203 c 5.521,-9.817 20.926,-10.653 26.796,0 C -11.203,0 0,0 0,0"
       style="fill:#272d65;fill-opacity:1;fill-rule:nonzero;stroke:none"
       transform="matrix(0.35277776,0,0,-0.35277776,153.39139,47.232539)"
       clip-path="url(#clipPath2)" />
    <path
       id="path3"
       d="m 0,0 v 21.671 l -19.126,29.961 h 13.6 L 5.818,33.306 17.162,51.632 H 30.761 L 11.635,21.671 V 0 Z"
       style="fill:#272d65;fill-opacity:1;fill-rule:nonzero;stroke:none"
       transform="matrix(0.35277776,0,0,-0.35277776,74.26965,45.677918)"
       clip-path="url(#clipPath4)" />
    <path
       id="path5"
       d="m 0,0 h 6.472 c 4.265,0 7.756,1.466 10.472,4.4 2.714,2.932 4.072,6.532 4.072,10.799 0,4.265 -1.358,7.865 -4.072,10.799 -2.716,2.932 -6.207,4.399 -10.472,4.399 H 0 Z M -11.635,-10.617 V 41.014 H 6.472 c 7.272,0 13.465,-2.521 18.58,-7.562 5.114,-5.043 7.672,-11.127 7.672,-18.253 0,-7.127 -2.558,-13.212 -7.672,-18.253 -5.115,-5.043 -11.308,-7.563 -18.58,-7.563 z"
       style="fill:#272d65;fill-opacity:1;fill-rule:nonzero;stroke:none"
       transform="matrix(0.35277776,0,0,-0.35277776,91.12438,41.932336)"
       clip-path="url(#clipPath6)" />
    <path
       id="path7"
       d="m 0,0 h 6.544 c 1.552,0 2.837,0.484 3.855,1.454 1.018,0.97 1.527,2.182 1.527,3.637 0,1.454 -0.509,2.677 -1.527,3.672 -1.018,0.993 -2.303,1.491 -3.855,1.491 H 0 Z M -11.635,-30.761 V 20.871 H 7.854 c 4.217,0 7.828,-1.504 10.835,-4.509 3.005,-3.007 4.509,-6.618 4.509,-10.835 0,-3.249 -0.922,-6.17 -2.764,-8.763 -1.842,-2.594 -4.242,-4.473 -7.199,-5.636 L 30.034,-30.761 H 16.144 L 0.145,-9.817 H 0 v -20.944 z"
       style="fill:#272d65;fill-opacity:1;fill-rule:nonzero;stroke:none"
       transform="matrix(0.35277776,0,0,-0.35277776,109.67224,34.826121)"
       clip-path="url(#clipPath8)" />
    <path
       id="path9"
       d="m 203.907,70.182 h 11.635 V 24.001 h -11.635 z"
       style="fill:#272d65;fill-opacity:1;fill-rule:nonzero;stroke:none"
       transform="matrix(0.35277776,0,0,-0.35277776,50.12917,54.144938)"
       clip-path="url(#clipPath10)" />
    <path
       id="path11"
       d="M 0,0 C 0,3.01 2.605,5.451 5.818,5.451 9.031,5.451 11.635,3.01 11.635,0 11.635,-3.01 9.031,-5.451 5.818,-5.451 2.605,-5.451 0,-3.01 0,0"
       style="fill:#272d65;fill-opacity:1;fill-rule:nonzero;stroke:none"
       transform="matrix(0.35277776,0,0,-0.35277776,122.0631,29.386323)"
       clip-path="url(#clipPath12)" />
    <path
       id="path13"
       d="M 226.595,70.182 H 238.23 V 24.001 h -11.635 z"
       style="fill:#5196d1;fill-opacity:1;fill-rule:nonzero;stroke:none"
       transform="matrix(0.35277776,0,0,-0.35277776,50.12917,54.144938)"
       clip-path="url(#clipPath14)" />
    <path
       id="path15"
       d="M 0,0 C 0,3.01 2.605,5.451 5.818,5.451 9.031,5.451 11.635,3.01 11.635,0 11.635,-3.01 9.031,-5.451 5.818,-5.451 2.605,-5.451 0,-3.01 0,0"
       style="fill:#5196d1;fill-opacity:1;fill-rule:nonzero;stroke:none"
       transform="matrix(0.35277776,0,0,-0.35277776,130.06696,29.386323)"
       clip-path="url(#clipPath16)" />
    <path
       id="path17"
       d="M 0,0 V 51.632 H 11.635 V 31.415 H 32.288 V 51.632 H 43.923 V 0 H 32.288 V 20.216 H 11.635 V 0 Z"
       style="fill:#272d65;fill-opacity:1;fill-rule:nonzero;stroke:none"
       transform="matrix(0.35277776,0,0,-0.35277776,50.12917,45.677918)"
       clip-path="url(#clipPath18)" />
    <path
       id="path19"
       d="M 0,0 V 8.166 H 1.84 V 1.829 H 5.014 V 0 Z"
       style="fill:#5196d1;fill-opacity:1;fill-rule:nonzero;stroke:none"
       transform="matrix(0.35277776,0,0,-0.35277776,74.59558,49.900174)"
       clip-path="url(#clipPath20)" />
    <path
       id="path21"
       d="M 0,0 0.506,1.771 H -0.265 V 3.773 H 1.737 V 1.771 L 1.001,0 Z"
       style="fill:#5196d1;fill-opacity:1;fill-rule:nonzero;stroke:none"
       transform="matrix(0.35277776,0,0,-0.35277776,76.31985,48.35028)"
       clip-path="url(#clipPath22)" />
    <path
       id="path23"
       d="m 77.151,17.783 h 1.737 V 12.032 H 77.151 Z M 78.83,18.6 h -1.61 c -0.153,0.176 -0.23,0.395 -0.23,0.655 0,0.292 0.1,0.537 0.3,0.736 0.198,0.2 0.444,0.299 0.736,0.299 0.291,0 0.536,-0.099 0.736,-0.299 0.199,-0.199 0.298,-0.444 0.298,-0.736 0,-0.26 -0.076,-0.479 -0.23,-0.655"
       style="fill:#5196d1;fill-opacity:1;fill-rule:nonzero;stroke:none"
       transform="matrix(0.35277776,0,0,-0.35277776,50.12917,54.144938)"
       clip-path="url(#clipPath24)" />
    <path
       id="path25"
       d="M 0,0 V 5.751 H 1.737 V 5.394 c 0.36,0.299 0.801,0.449 1.322,0.449 0.798,0 1.415,-0.24 1.852,-0.719 C 5.348,4.645 5.566,4.006 5.566,3.209 V 0 H 3.83 V 2.898 C 3.83,3.304 3.743,3.633 3.571,3.882 3.398,4.131 3.132,4.255 2.772,4.255 2.373,4.255 2.028,4.09 1.737,3.761 V 0 Z"
       style="fill:#5196d1;fill-opacity:1;fill-rule:nonzero;stroke:none"
       transform="matrix(0.35277776,0,0,-0.35277776,78.4459,49.900174)"
       clip-path="url(#clipPath26)" />
    <path
       id="path27"
       d="m 0,0 h -1.587 c -0.545,0 -0.974,0.157 -1.288,0.471 -0.315,0.315 -0.472,0.748 -0.472,1.3 v 2.461 h -0.748 l -0.379,1.519 h 1.127 V 6.613 L -1.61,7.476 V 5.751 H 0.207 L -0.173,4.232 H -1.61 V 2.266 c 0,-0.246 0.051,-0.42 0.155,-0.523 0.103,-0.104 0.274,-0.156 0.511,-0.156 H 0 Z"
       style="fill:#5196d1;fill-opacity:1;fill-rule:nonzero;stroke:none"
       transform="matrix(0.35277776,0,0,-0.35277776,82.19501,49.900174)"
       clip-path="url(#clipPath28)" />
    <path
       id="path29"
       d="M 0,0 C -0.261,0 -0.502,-0.067 -0.725,-0.201 -0.947,-0.335 -1.1,-0.56 -1.185,-0.874 H 1.162 C 1.115,-0.583 0.985,-0.364 0.771,-0.219 0.556,-0.073 0.299,0 0,0 m 0.069,-4.543 c -0.79,0 -1.476,0.278 -2.059,0.834 -0.582,0.556 -0.874,1.267 -0.874,2.133 0,0.859 0.274,1.568 0.823,2.128 0.548,0.559 1.263,0.84 2.144,0.84 0.89,0 1.601,-0.301 2.134,-0.903 0.532,-0.602 0.734,-1.394 0.604,-2.375 h -4.037 c 0.045,-0.353 0.191,-0.62 0.437,-0.8 0.245,-0.18 0.517,-0.27 0.817,-0.27 0.559,0 0.969,0.242 1.23,0.725 l 1.38,-0.932 C 2.392,-3.592 2.03,-3.93 1.581,-4.175 1.133,-4.42 0.628,-4.543 0.069,-4.543"
       style="fill:#5196d1;fill-opacity:1;fill-rule:nonzero;stroke:none"
       transform="matrix(0.35277776,0,0,-0.35277776,83.43231,48.32996)"
       clip-path="url(#clipPath30)" />
    <path
       id="path31"
       d="m 98.336,20.198 h 1.737 v -8.166 h -1.737 z"
       style="fill:#5196d1;fill-opacity:1;fill-rule:nonzero;stroke:none"
       transform="matrix(0.35277776,0,0,-0.35277776,50.12917,54.144938)"
       clip-path="url(#clipPath32)" />
    <path
       id="path33"
       d="m 101.453,20.198 h 1.737 v -8.166 h -1.737 z"
       style="fill:#5196d1;fill-opacity:1;fill-rule:nonzero;stroke:none"
       transform="matrix(0.35277776,0,0,-0.35277776,50.12917,54.144938)"
       clip-path="url(#clipPath34)" />
    <path
       id="path35"
       d="m 104.57,17.783 h 1.737 v -5.751 h -1.737 z m 1.679,0.817 h -1.611 c -0.153,0.176 -0.229,0.395 -0.229,0.655 0,0.292 0.099,0.537 0.299,0.736 0.199,0.2 0.444,0.299 0.736,0.299 0.291,0 0.536,-0.099 0.736,-0.299 0.199,-0.199 0.299,-0.444 0.299,-0.736 0,-0.26 -0.077,-0.479 -0.23,-0.655"
       style="fill:#5196d1;fill-opacity:1;fill-rule:nonzero;stroke:none"
       transform="matrix(0.35277776,0,0,-0.35277776,50.12917,54.144938)"
       clip-path="url(#clipPath36)" />
    <path
       id="path37"
       d="m 0,0 c 0.429,0 0.774,0.161 1.035,0.483 v 1.38 C 0.774,2.185 0.429,2.346 0,2.346 -0.368,2.346 -0.659,2.229 -0.874,1.995 -1.089,1.761 -1.196,1.487 -1.196,1.173 -1.196,0.859 -1.089,0.585 -0.874,0.351 -0.659,0.117 -0.368,0 0,0 m 0,-4.141 c -1.066,0 -1.928,0.215 -2.587,0.645 l 0.782,1.529 c 0.506,-0.391 1.069,-0.586 1.69,-0.586 0.383,0 0.698,0.073 0.943,0.218 0.246,0.146 0.368,0.38 0.368,0.702 0,0.184 -0.05,0.345 -0.149,0.483 -0.353,-0.292 -0.779,-0.437 -1.277,-0.437 -0.836,0 -1.497,0.272 -1.984,0.817 -0.487,0.544 -0.73,1.192 -0.73,1.943 0,0.751 0.243,1.399 0.73,1.944 0.487,0.544 1.148,0.816 1.984,0.816 0.491,0 0.913,-0.145 1.265,-0.437 V 3.841 H 2.772 V -0.794 C 2.933,-1.169 3.014,-1.545 3.014,-1.921 3.014,-2.434 2.862,-2.864 2.559,-3.209 2.256,-3.554 1.888,-3.795 1.455,-3.933 1.022,-4.071 0.537,-4.141 0,-4.141"
       style="fill:#5196d1;fill-opacity:1;fill-rule:nonzero;stroke:none"
       transform="matrix(0.35277776,0,0,-0.35277776,89.05153,49.226651)"
       clip-path="url(#clipPath38)" />
    <path
       id="path39"
       d="M 0,0 C -0.261,0 -0.502,-0.067 -0.725,-0.201 -0.947,-0.335 -1.1,-0.56 -1.185,-0.874 H 1.162 C 1.115,-0.583 0.985,-0.364 0.771,-0.219 0.556,-0.073 0.299,0 0,0 m 0.069,-4.543 c -0.79,0 -1.476,0.278 -2.059,0.834 -0.582,0.556 -0.874,1.267 -0.874,2.133 0,0.859 0.274,1.568 0.823,2.128 0.548,0.559 1.263,0.84 2.144,0.84 0.89,0 1.601,-0.301 2.134,-0.903 0.532,-0.602 0.734,-1.394 0.604,-2.375 h -4.037 c 0.045,-0.353 0.191,-0.62 0.437,-0.8 0.245,-0.18 0.517,-0.27 0.817,-0.27 0.559,0 0.969,0.242 1.23,0.725 l 1.38,-0.932 C 2.392,-3.592 2.03,-3.93 1.581,-4.175 1.133,-4.42 0.628,-4.543 0.069,-4.543"
       style="fill:#5196d1;fill-opacity:1;fill-rule:nonzero;stroke:none"
       transform="matrix(0.35277776,0,0,-0.35277776,91.42932,48.32996)"
       clip-path="url(#clipPath40)" />
    <path
       id="path41"
       d="M 0,0 V 5.751 H 1.737 V 5.394 c 0.36,0.299 0.801,0.449 1.322,0.449 0.798,0 1.415,-0.24 1.852,-0.719 C 5.348,4.645 5.566,4.006 5.566,3.209 V 0 H 3.83 V 2.898 C 3.83,3.304 3.743,3.633 3.571,3.882 3.398,4.131 3.132,4.255 2.772,4.255 2.373,4.255 2.028,4.09 1.737,3.761 V 0 Z"
       style="fill:#5196d1;fill-opacity:1;fill-rule:nonzero;stroke:none"
       transform="matrix(0.35277776,0,0,-0.35277776,92.8168,49.900174)"
       clip-path="url(#clipPath42)" />
    <path
       id="path43"
       d="m 0,0 c -0.828,0 -1.533,0.291 -2.116,0.874 -0.583,0.583 -0.874,1.281 -0.874,2.093 0,0.813 0.291,1.511 0.874,2.094 C -1.533,5.643 -0.828,5.935 0,5.935 0.522,5.935 1.002,5.814 1.444,5.572 1.885,5.331 2.243,4.999 2.519,4.577 L 1.139,3.6 C 0.878,4.075 0.499,4.313 0,4.313 -0.36,4.313 -0.657,4.188 -0.891,3.939 -1.125,3.69 -1.242,3.366 -1.242,2.967 -1.242,2.568 -1.125,2.244 -0.891,1.995 -0.657,1.746 -0.36,1.622 0,1.622 c 0.499,0 0.878,0.237 1.139,0.713 L 2.519,1.357 C 2.243,0.935 1.885,0.604 1.444,0.362 1.002,0.121 0.522,0 0,0"
       style="fill:#5196d1;fill-opacity:1;fill-rule:nonzero;stroke:none"
       transform="matrix(0.35277776,0,0,-0.35277776,96.18431,49.93263)"
       clip-path="url(#clipPath44)" />
    <path
       id="path45"
       d="M 0,0 C -0.261,0 -0.502,-0.067 -0.725,-0.201 -0.947,-0.335 -1.1,-0.56 -1.185,-0.874 H 1.162 C 1.115,-0.583 0.985,-0.364 0.771,-0.219 0.556,-0.073 0.299,0 0,0 m 0.069,-4.543 c -0.79,0 -1.476,0.278 -2.059,0.834 -0.582,0.556 -0.874,1.267 -0.874,2.133 0,0.859 0.274,1.568 0.823,2.128 0.548,0.559 1.263,0.84 2.144,0.84 0.89,0 1.601,-0.301 2.134,-0.903 0.532,-0.602 0.734,-1.394 0.604,-2.375 h -4.037 c 0.045,-0.353 0.191,-0.62 0.437,-0.8 0.245,-0.18 0.517,-0.27 0.817,-0.27 0.559,0 0.969,0.242 1.23,0.725 l 1.38,-0.932 C 2.392,-3.592 2.03,-3.93 1.581,-4.175 1.133,-4.42 0.628,-4.543 0.069,-4.543"
       style="fill:#5196d1;fill-opacity:1;fill-rule:nonzero;stroke:none"
       transform="matrix(0.35277776,0,0,-0.35277776,98.2699,48.32996)"
       clip-path="url(#clipPath46)" />
    <path
       id="path47"
       d="m 0,0 c -0.399,0 -0.719,-0.132 -0.96,-0.397 -0.242,-0.264 -0.363,-0.592 -0.363,-0.983 0,-0.391 0.121,-0.719 0.363,-0.984 0.241,-0.264 0.561,-0.396 0.96,-0.396 0.421,0 0.748,0.157 0.978,0.471 v 1.806 C 0.732,-0.161 0.406,0 0,0 M 2.714,-4.255 H 0.978 v 0.333 c -0.345,-0.284 -0.767,-0.425 -1.265,-0.425 -0.829,0 -1.5,0.291 -2.013,0.874 -0.514,0.582 -0.771,1.28 -0.771,2.093 0,0.812 0.257,1.51 0.771,2.093 0.513,0.583 1.184,0.874 2.013,0.874 0.49,0 0.912,-0.146 1.265,-0.437 v 2.76 h 1.736 z"
       style="fill:#5196d1;fill-opacity:1;fill-rule:nonzero;stroke:none"
       transform="matrix(0.35277776,0,0,-0.35277776,101.51563,48.398929)"
       clip-path="url(#clipPath48)" />
    <path
       id="path49"
       d="M 0,0 C -0.261,0 -0.502,-0.067 -0.725,-0.201 -0.947,-0.335 -1.1,-0.56 -1.185,-0.874 H 1.162 C 1.115,-0.583 0.985,-0.364 0.771,-0.219 0.556,-0.073 0.299,0 0,0 m 0.069,-4.543 c -0.79,0 -1.476,0.278 -2.059,0.834 -0.582,0.556 -0.874,1.267 -0.874,2.133 0,0.859 0.274,1.568 0.823,2.128 0.548,0.559 1.263,0.84 2.144,0.84 0.89,0 1.601,-0.301 2.134,-0.903 0.532,-0.602 0.734,-1.394 0.604,-2.375 h -4.037 c 0.045,-0.353 0.191,-0.62 0.437,-0.8 0.245,-0.18 0.517,-0.27 0.817,-0.27 0.559,0 0.969,0.242 1.23,0.725 l 1.38,-0.932 C 2.392,-3.592 2.03,-3.93 1.581,-4.175 1.133,-4.42 0.628,-4.543 0.069,-4.543"
       style="fill:#5196d1;fill-opacity:1;fill-rule:nonzero;stroke:none"
       transform="matrix(0.35277776,0,0,-0.35277776,103.86089,48.32996)"
       clip-path="url(#clipPath50)" />
    <path
       id="path51"
       d="m 0,0 c -1.081,0 -1.851,0.406 -2.312,1.219 l 1.323,0.897 c 0.26,-0.468 0.614,-0.701 1.058,-0.701 0.299,0 0.449,0.088 0.449,0.264 0,0.1 -0.045,0.18 -0.133,0.242 C 0.297,1.982 0.1,2.07 -0.207,2.185 L -0.506,2.3 c -1.012,0.399 -1.518,1.016 -1.518,1.852 0,0.521 0.189,0.949 0.569,1.282 0.38,0.334 0.85,0.501 1.409,0.501 0.789,0 1.395,-0.303 1.817,-0.909 L 0.783,4.048 C 0.537,4.393 0.261,4.566 -0.046,4.566 -0.322,4.566 -0.46,4.478 -0.46,4.301 -0.46,4.194 -0.414,4.11 -0.322,4.048 -0.23,3.987 -0.023,3.899 0.299,3.784 L 0.541,3.692 C 1.085,3.485 1.478,3.232 1.719,2.933 1.961,2.634 2.082,2.266 2.082,1.829 2.082,1.261 1.887,0.815 1.495,0.489 1.104,0.163 0.606,0 0,0"
       style="fill:#5196d1;fill-opacity:1;fill-rule:nonzero;stroke:none"
       transform="matrix(0.35277776,0,0,-0.35277776,105.92179,49.93263)"
       clip-path="url(#clipPath52)" />
    <path
       id="path53"
       d="M 0,0 V 5.751 H 1.737 V 5.245 c 0.329,0.398 0.766,0.598 1.311,0.598 0.245,0 0.452,-0.031 0.62,-0.092 V 3.945 C 3.416,4.075 3.12,4.14 2.783,4.14 2.377,4.14 2.028,4.014 1.737,3.761 V 0 Z"
       style="fill:#5196d1;fill-opacity:1;fill-rule:nonzero;stroke:none"
       transform="matrix(0.35277776,0,0,-0.35277776,107.91403,49.900174)"
       clip-path="url(#clipPath54)" />
    <path
       id="path55"
       d="M 0,0 -0.966,-1.84 H 0.299 L 1.99,0 Z m -1.242,-3.916 c -0.223,-0.134 -0.376,-0.359 -0.46,-0.673 h 2.346 c -0.046,0.291 -0.176,0.51 -0.391,0.655 -0.215,0.146 -0.472,0.219 -0.77,0.219 -0.261,0 -0.503,-0.067 -0.725,-0.201 m -1.265,-3.508 c -0.583,0.556 -0.874,1.267 -0.874,2.134 0,0.858 0.274,1.567 0.822,2.127 0.549,0.56 1.263,0.84 2.145,0.84 0.889,0 1.6,-0.301 2.133,-0.903 0.533,-0.602 0.734,-1.394 0.604,-2.375 h -4.037 c 0.046,-0.353 0.192,-0.619 0.438,-0.799 0.245,-0.181 0.517,-0.271 0.816,-0.271 0.56,0 0.97,0.242 1.231,0.725 l 1.38,-0.932 C 1.875,-7.307 1.512,-7.645 1.064,-7.89 0.615,-8.135 0.111,-8.258 -0.449,-8.258 c -0.79,0 -1.475,0.278 -2.058,0.834"
       style="fill:#5196d1;fill-opacity:1;fill-rule:nonzero;stroke:none"
       transform="matrix(0.35277776,0,0,-0.35277776,110.56745,47.019426)"
       clip-path="url(#clipPath56)" />
    <path
       id="path57"
       d="m 0,0 c -1.081,0 -1.851,0.406 -2.312,1.219 l 1.323,0.897 c 0.26,-0.468 0.614,-0.701 1.058,-0.701 0.299,0 0.449,0.088 0.449,0.264 0,0.1 -0.045,0.18 -0.133,0.242 C 0.297,1.982 0.1,2.07 -0.207,2.185 L -0.506,2.3 c -1.012,0.399 -1.518,1.016 -1.518,1.852 0,0.521 0.189,0.949 0.569,1.282 0.38,0.334 0.85,0.501 1.409,0.501 0.789,0 1.395,-0.303 1.817,-0.909 L 0.783,4.048 C 0.537,4.393 0.261,4.566 -0.046,4.566 -0.322,4.566 -0.46,4.478 -0.46,4.301 -0.46,4.194 -0.414,4.11 -0.322,4.048 -0.23,3.987 -0.023,3.899 0.299,3.784 L 0.541,3.692 C 1.085,3.485 1.478,3.232 1.719,2.933 1.961,2.634 2.082,2.266 2.082,1.829 2.082,1.261 1.887,0.815 1.495,0.489 1.104,0.163 0.606,0 0,0"
       style="fill:#5196d1;fill-opacity:1;fill-rule:nonzero;stroke:none"
       transform="matrix(0.35277776,0,0,-0.35277776,112.44585,49.93263)"
       clip-path="url(#clipPath58)" />
    <path
       id="path59"
       d="M 0,0 C -0.261,0 -0.502,-0.067 -0.725,-0.201 -0.947,-0.335 -1.1,-0.56 -1.185,-0.874 H 1.162 C 1.115,-0.583 0.985,-0.364 0.771,-0.219 0.556,-0.073 0.299,0 0,0 m 0.069,-4.543 c -0.79,0 -1.476,0.278 -2.059,0.834 -0.582,0.556 -0.874,1.267 -0.874,2.133 0,0.859 0.274,1.568 0.823,2.128 0.548,0.559 1.263,0.84 2.144,0.84 0.89,0 1.601,-0.301 2.134,-0.903 0.532,-0.602 0.734,-1.394 0.604,-2.375 h -4.037 c 0.045,-0.353 0.191,-0.62 0.437,-0.8 0.245,-0.18 0.517,-0.27 0.817,-0.27 0.559,0 0.969,0.242 1.23,0.725 l 1.38,-0.932 C 2.392,-3.592 2.03,-3.93 1.581,-4.175 1.133,-4.42 0.628,-4.543 0.069,-4.543"
       style="fill:#5196d1;fill-opacity:1;fill-rule:nonzero;stroke:none"
       transform="matrix(0.35277776,0,0,-0.35277776,114.45449,48.32996)"
       clip-path="url(#clipPath60)" />
    <path
       id="path61"
       d="M 0,0 C 0.406,0 0.732,0.157 0.978,0.472 V 2.277 C 0.724,2.599 0.398,2.76 0,2.76 -0.399,2.76 -0.719,2.628 -0.96,2.364 -1.202,2.099 -1.323,1.771 -1.323,1.38 -1.323,0.989 -1.202,0.661 -0.96,0.397 -0.719,0.132 -0.399,0 0,0 m 0.978,-1.495 v 0.334 c -0.345,-0.284 -0.767,-0.426 -1.265,-0.426 -0.829,0 -1.5,0.291 -2.013,0.874 -0.514,0.583 -0.771,1.281 -0.771,2.093 0,0.813 0.257,1.511 0.771,2.094 0.513,0.582 1.184,0.874 2.013,0.874 0.49,0 0.912,-0.146 1.265,-0.438 v 0.345 h 1.736 v -5.75 z"
       style="fill:#5196d1;fill-opacity:1;fill-rule:nonzero;stroke:none"
       transform="matrix(0.35277776,0,0,-0.35277776,116.81571,49.372736)"
       clip-path="url(#clipPath62)" />
    <path
       id="path63"
       d="m 0,0 v 0.426 c -0.368,-0.345 -0.825,-0.518 -1.369,-0.518 -0.767,0 -1.368,0.239 -1.805,0.719 -0.437,0.479 -0.656,1.117 -0.656,1.915 v 3.209 h 1.736 V 2.852 c 0,-0.406 0.087,-0.734 0.259,-0.983 0.173,-0.249 0.424,-0.374 0.754,-0.374 0.483,0 0.843,0.192 1.081,0.575 V 5.751 H 1.737 V 0 Z"
       style="fill:#5196d1;fill-opacity:1;fill-rule:nonzero;stroke:none"
       transform="matrix(0.35277776,0,0,-0.35277776,119.58695,49.900174)"
       clip-path="url(#clipPath64)" />
    <path
       id="path65"
       d="M 0,0 2.07,2.898 0.103,5.751 H 2.116 L 3.198,4.106 4.279,5.751 H 6.291 L 4.325,2.898 6.395,0 H 4.382 L 3.198,1.725 2.013,0 Z"
       style="fill:#5196d1;fill-opacity:1;fill-rule:nonzero;stroke:none"
       transform="matrix(0.35277776,0,0,-0.35277776,120.45094,49.900174)"
       clip-path="url(#clipPath66)" />
    <path
       id="path67"
       d="m 0,0 c -0.399,0 -0.719,-0.132 -0.96,-0.397 -0.242,-0.264 -0.363,-0.592 -0.363,-0.983 0,-0.391 0.121,-0.719 0.363,-0.984 0.241,-0.264 0.561,-0.396 0.96,-0.396 0.421,0 0.748,0.157 0.978,0.471 v 1.806 C 0.732,-0.161 0.406,0 0,0 M 2.714,-4.255 H 0.978 v 0.333 c -0.345,-0.284 -0.767,-0.425 -1.265,-0.425 -0.829,0 -1.5,0.291 -2.013,0.874 -0.514,0.582 -0.771,1.28 -0.771,2.093 0,0.812 0.257,1.51 0.771,2.093 0.513,0.583 1.184,0.874 2.013,0.874 0.49,0 0.912,-0.146 1.265,-0.437 v 2.76 h 1.736 z"
       style="fill:#5196d1;fill-opacity:1;fill-rule:nonzero;stroke:none"
       transform="matrix(0.35277776,0,0,-0.35277776,124.81663,48.398929)"
       clip-path="url(#clipPath68)" />
    <path
       id="path69"
       d="M 0,0 0.506,1.771 H -0.265 V 3.773 H 1.737 V 1.771 L 1.001,0 Z"
       style="fill:#5196d1;fill-opacity:1;fill-rule:nonzero;stroke:none"
       transform="matrix(0.35277776,0,0,-0.35277776,126.30553,48.35028)"
       clip-path="url(#clipPath70)" />
    <path
       id="path71"
       d="M 0,0 C -0.261,0 -0.502,-0.067 -0.725,-0.201 -0.947,-0.335 -1.1,-0.56 -1.185,-0.874 H 1.162 C 1.115,-0.583 0.985,-0.364 0.771,-0.219 0.556,-0.073 0.299,0 0,0 m 0.069,-4.543 c -0.79,0 -1.476,0.278 -2.059,0.834 -0.582,0.556 -0.874,1.267 -0.874,2.133 0,0.859 0.274,1.568 0.823,2.128 0.548,0.559 1.263,0.84 2.144,0.84 0.89,0 1.601,-0.301 2.134,-0.903 0.532,-0.602 0.734,-1.394 0.604,-2.375 h -4.037 c 0.045,-0.353 0.191,-0.62 0.437,-0.8 0.245,-0.18 0.517,-0.27 0.817,-0.27 0.559,0 0.969,0.242 1.23,0.725 l 1.38,-0.932 C 2.392,-3.592 2.03,-3.93 1.581,-4.175 1.133,-4.42 0.628,-4.543 0.069,-4.543"
       style="fill:#5196d1;fill-opacity:1;fill-rule:nonzero;stroke:none"
       transform="matrix(0.35277776,0,0,-0.35277776,128.10304,48.32996)"
       clip-path="url(#clipPath72)" />
    <path
       id="path73"
       d="M 0,0 C 0.406,0 0.732,0.157 0.978,0.472 V 2.277 C 0.724,2.599 0.398,2.76 0,2.76 -0.399,2.76 -0.719,2.628 -0.96,2.364 -1.202,2.099 -1.323,1.771 -1.323,1.38 -1.323,0.989 -1.202,0.661 -0.96,0.397 -0.719,0.132 -0.399,0 0,0 m 0.978,-1.495 v 0.334 c -0.345,-0.284 -0.767,-0.426 -1.265,-0.426 -0.829,0 -1.5,0.291 -2.013,0.874 -0.514,0.583 -0.771,1.281 -0.771,2.093 0,0.813 0.257,1.511 0.771,2.094 0.513,0.582 1.184,0.874 2.013,0.874 0.49,0 0.912,-0.146 1.265,-0.438 v 0.345 h 1.736 v -5.75 z"
       style="fill:#5196d1;fill-opacity:1;fill-rule:nonzero;stroke:none"
       transform="matrix(0.35277776,0,0,-0.35277776,130.46447,49.372736)"
       clip-path="url(#clipPath74)" />
    <path
       id="path75"
       d="m 0,0 v 0.426 c -0.368,-0.345 -0.825,-0.518 -1.369,-0.518 -0.767,0 -1.368,0.239 -1.805,0.719 -0.437,0.479 -0.656,1.117 -0.656,1.915 v 3.209 h 1.736 V 2.852 c 0,-0.406 0.087,-0.734 0.259,-0.983 0.173,-0.249 0.424,-0.374 0.754,-0.374 0.483,0 0.843,0.192 1.081,0.575 V 5.751 H 1.737 V 0 Z"
       style="fill:#5196d1;fill-opacity:1;fill-rule:nonzero;stroke:none"
       transform="matrix(0.35277776,0,0,-0.35277776,133.2355,49.900174)"
       clip-path="url(#clipPath76)" />
    <path
       id="path77"
       d="M 0,0 H -12.217 L 13.235,52.213 38.688,0 H 26.47 L 13.235,28.143 Z"
       style="fill:#5196d1;fill-opacity:1;fill-rule:nonzero;stroke:none"
       transform="matrix(0.35277776,0,0,-0.35277776,140.04633,45.677918)"
       clip-path="url(#clipPath78)" />
  </g>
</svg>
