<?xml version="1.0" encoding="UTF-8" standalone="no"?>
<!-- Created with Inkscape (http://www.inkscape.org/) -->

<svg
   width="387.76086mm"
   height="192.37975mm"
   viewBox="0 0 387.76086 192.37975"
   version="1.1"
   id="svg1"
   sodipodi:docname="logodgt_blue.svg"
   inkscape:version="1.4.2 (f4327f4, 2025-05-13)"
   xmlns:inkscape="http://www.inkscape.org/namespaces/inkscape"
   xmlns:sodipodi="http://sodipodi.sourceforge.net/DTD/sodipodi-0.dtd"
   xmlns="http://www.w3.org/2000/svg"
   xmlns:svg="http://www.w3.org/2000/svg">
  <sodipodi:namedview
     id="namedview1"
     pagecolor="#ffffff"
     bordercolor="#000000"
     borderopacity="0.25"
     inkscape:showpageshadow="2"
     inkscape:pageopacity="0.0"
     inkscape:pagecheckerboard="0"
     inkscape:deskcolor="#d1d1d1"
     inkscape:document-units="mm"
     inkscape:zoom="0.5"
     inkscape:cx="1155"
     inkscape:cy="451"
     inkscape:window-width="1920"
     inkscape:window-height="1111"
     inkscape:window-x="-9"
     inkscape:window-y="-9"
     inkscape:window-maximized="1"
     inkscape:current-layer="layer1" />
  <defs
     id="defs1">
    <clipPath
       id="clip0">
      <rect
         x="356"
         y="-13"
         width="616"
         height="279"
         id="rect1" />
    </clipPath>
    <clipPath
       id="clip1">
      <rect
         x="0"
         y="0"
         width="5867400"
         height="2657475"
         id="rect2" />
    </clipPath>
    <clipPath
       id="clip3">
      <rect
         x="0"
         y="0"
         width="5867400"
         height="2655161"
         id="rect3" />
    </clipPath>
  </defs>
  <g
     inkscape:label="Calque 1"
     inkscape:groupmode="layer"
     id="layer1"
     transform="translate(443.10708,13.165825)">
    <path
       d="m -439.52465,119.27301 q 2.21114,0.085 5.78298,0.17009 3.57184,0.085 7.14368,0.085 4.0821,0 7.90907,-0.085 3.82697,-0.085 5.44281,-0.085 10.54543,0 15.7331,3.74192 5.27271,3.74193 5.27271,9.60995 0,2.97654 -1.78592,6.03811 -1.78592,3.06158 -5.52784,5.44281 -3.74193,2.38122 -9.695,3.48679 v 0.17009 q 7.99412,0.59531 12.67153,2.89149 4.67741,2.29618 6.71846,5.52785 2.04105,3.23166 2.04105,6.71846 0,5.35776 -2.80644,9.01464 -2.80645,3.65688 -8.07916,5.61289 -5.27272,1.87096 -12.58649,1.87096 -2.04105,0 -5.86802,-0.085 -3.82697,-0.17009 -9.26977,-0.17009 -3.74193,0 -7.31377,0.085 -3.57184,0 -5.78298,0.17008 v -1.70087 q 2.7214,-0.17009 4.0821,-0.68035 1.3607,-0.51027 1.78592,-2.04105 0.51027,-1.53079 0.51027,-4.59237 v -42.18172 q 0,-3.14662 -0.51027,-4.59237 -0.42522,-1.53079 -1.87096,-2.04105 -1.3607,-0.59531 -3.99706,-0.68035 z m 25.17297,1.70088 q -3.31671,0 -4.33724,1.44574 -0.93548,1.44575 -0.93548,5.86803 v 42.18172 q 0,2.97653 0.42522,4.50732 0.51026,1.53079 1.70088,2.04105 1.27565,0.51027 3.74192,0.51027 6.12316,0 8.9296,-3.82697 2.89149,-3.91202 2.89149,-11.0557 0,-6.54837 -3.31671,-10.12021 -3.23166,-3.57184 -10.80056,-3.57184 h -7.22872 q 0,0 0,-0.68035 0,-0.76539 0,-0.76539 h 7.31376 q 3.99706,0 6.12316,-1.87097 2.12609,-1.95601 2.97653,-5.10263 0.85044,-3.23166 0.85044,-6.88854 0,-6.29325 -1.95601,-9.43987 -1.95601,-3.23166 -6.37828,-3.23166 z m 77.23685,-1.70088 q -0.34017,3.74193 -0.51026,7.22873 -0.085,3.48679 -0.085,5.35776 0,1.70087 0.085,3.23166 0.085,1.53079 0.17009,2.55131 h -1.95601 q -0.85044,-6.20819 -2.63636,-9.78003 -1.78592,-3.65689 -4.67741,-5.10263 -2.80644,-1.53079 -6.63341,-1.53079 h -3.4868 q -2.46627,0 -3.74193,0.42522 -1.27565,0.42522 -1.70087,1.70088 -0.42522,1.27565 -0.42522,3.91201 v 44.22278 q 0,2.63635 0.42522,3.91201 0.42522,1.27566 1.70087,1.70088 1.27566,0.42522 3.74193,0.42522 h 4.16715 q 3.82697,0 6.71846,-1.61584 2.97653,-1.70087 5.01758,-5.69793 2.1261,-3.99706 3.23167,-10.80056 h 1.956 q -0.25513,2.7214 -0.25513,7.14368 0,1.956 0.085,5.52784 0.085,3.57184 0.51026,7.39881 -4.33723,-0.17008 -9.78004,-0.17008 -5.4428,-0.085 -9.69499,-0.085 -2.1261,0 -5.4428,0 -3.31671,0 -7.14368,0.085 -3.82697,0 -7.73899,0.085 -3.91201,0 -7.39881,0.085 v -1.70087 q 2.7214,-0.17009 4.0821,-0.68035 1.3607,-0.51027 1.78592,-2.04105 0.51026,-1.53079 0.51026,-4.59237 v -42.18172 q 0,-3.14662 -0.51026,-4.59237 -0.42522,-1.53079 -1.87096,-2.04105 -1.3607,-0.59531 -3.99706,-0.68035 v -1.70088 q 3.4868,0.085 7.39881,0.17009 3.91202,0 7.73899,0.085 3.82697,0 7.14368,0 3.3167,0 5.4428,0 3.91201,0 8.84455,0 5.01759,-0.085 8.9296,-0.25513 z m -13.26683,29.08498 q 0,0 0,0.85044 0,0.85044 0,0.85044 h -14.88266 q 0,0 0,-0.85044 0,-0.85044 0,-0.85044 z m 2.46627,-11.22578 q -0.34017,4.8475 -0.34017,7.39881 0.085,2.55132 0.085,4.67741 0,2.1261 0.085,4.67741 0.0851,2.55131 0.42522,7.39881 h -1.95601 q -0.42521,-2.97653 -1.61583,-5.52785 -1.10557,-2.55131 -3.23166,-4.0821 -2.1261,-1.61583 -5.52785,-1.61583 v -1.70088 q 2.55131,0 4.33723,-1.02052 1.78592,-1.10557 2.89149,-2.80645 1.19062,-1.78592 1.87097,-3.74193 0.68035,-1.956 1.02052,-3.65688 z m 75.26383,-17.8592 v 1.70088 q -2.7214,0.34017 -4.0821,1.44574 -1.3607,1.02053 -1.87097,3.31671 -0.42522,2.29618 -0.42522,6.46333 v 47.45444 q -1.02052,-0.085 -2.12609,-0.085 -1.02053,0 -2.21114,0.085 l -36.90901,-46.77409 v 32.65682 q 0,4.67741 0.51026,7.22872 0.51027,2.46627 2.21114,3.57184 1.78592,1.02053 5.52785,1.44575 v 1.70087 q -1.61583,-0.17008 -4.25219,-0.17008 -2.63636,-0.085 -4.93254,-0.085 -1.95601,0 -3.99706,0.085 -2.04105,0 -3.40175,0.17008 v -1.70087 q 2.7214,-0.42522 4.0821,-1.44575 1.3607,-1.02052 1.78592,-3.3167 0.51026,-2.38123 0.51026,-6.46333 v -38.26971 q 0,-3.14662 -0.51026,-4.59237 -0.42522,-1.53079 -1.87096,-2.04105 -1.3607,-0.59531 -3.99706,-0.68035 v -1.70088 q 1.3607,0.085 3.40175,0.17009 2.04105,0.085 3.99706,0.085 2.04105,0 3.91201,-0.085 1.87097,-0.085 3.40176,-0.17009 l 32.91195,40.5659 V 133.2202 q 0,-4.67741 -0.51027,-7.14368 -0.51026,-2.55132 -2.29618,-3.65689 -1.70087,-1.10557 -5.4428,-1.44574 v -1.70088 q 1.61583,0.085 4.25219,0.17009 2.63636,0.085 4.93254,0.085 2.04105,0 3.99706,-0.085 2.04105,-0.085 3.40175,-0.17009 z m 5.35778,0 q 2.21114,0.085 5.78298,0.17009 3.57184,0.085 7.14367,0.085 4.08211,0 7.90908,-0.085 3.82697,-0.085 5.4428,-0.085 10.54543,0 15.7331,3.74192 5.27272,3.74193 5.27272,9.60995 0,2.97654 -1.78592,6.03811 -1.78592,3.06158 -5.52785,5.44281 -3.74192,2.38122 -9.69499,3.48679 v 0.17009 q 7.99412,0.59531 12.67153,2.89149 4.67741,2.29618 6.71846,5.52785 2.04105,3.23166 2.04105,6.71846 0,5.35776 -2.80645,9.01464 -2.80644,3.65688 -8.07916,5.61289 -5.27271,1.87096 -12.58648,1.87096 -2.04105,0 -5.86802,-0.085 -3.82697,-0.17009 -9.26978,-0.17009 -3.74192,0 -7.31376,0.085 -3.57184,0 -5.78298,0.17008 v -1.70087 q 2.7214,-0.17009 4.0821,-0.68035 1.3607,-0.51027 1.78592,-2.04105 0.51026,-1.53079 0.51026,-4.59237 v -42.18172 q 0,-3.14662 -0.51026,-4.59237 -0.42522,-1.53079 -1.87096,-2.04105 -1.36071,-0.59531 -3.99706,-0.68035 z m 25.17296,1.70088 q -3.31671,0 -4.33723,1.44574 -0.93548,1.44575 -0.93548,5.86803 v 42.18172 q 0,2.97653 0.42522,4.50732 0.51026,1.53079 1.70087,2.04105 1.27566,0.51027 3.74193,0.51027 6.12315,0 8.9296,-3.82697 2.89149,-3.91202 2.89149,-11.0557 0,-6.54837 -3.31671,-10.12021 -3.23167,-3.57184 -10.80056,-3.57184 h -7.22873 q 0,0 0,-0.68035 0,-0.76539 0,-0.76539 h 7.31377 q 3.99706,0 6.12315,-1.87097 2.1261,-1.95601 2.97654,-5.10263 0.85043,-3.23166 0.85043,-6.88854 0,-6.29325 -1.956,-9.43987 -1.95601,-3.23166 -6.37829,-3.23166 z m 62.84744,-2.89149 q 9.01464,0 15.73311,3.65688 6.8035,3.65689 10.54543,10.54543 3.74192,6.80351 3.74192,16.58355 0,9.5249 -3.82697,16.66858 -3.82697,7.14368 -10.71552,11.14074 -6.8035,3.99706 -15.56301,3.99706 -9.01464,0 -15.81815,-3.65689 -6.71846,-3.65688 -10.46039,-10.54543 -3.74192,-6.88855 -3.74192,-16.58354 0,-9.5249 3.82697,-16.66858 3.91201,-7.14368 10.63047,-11.14074 6.80351,-3.99706 15.64806,-3.99706 z m -0.34017,1.53079 q -4.76246,0 -8.3343,3.82697 -3.48679,3.82697 -5.4428,10.54543 -1.87096,6.71846 -1.87096,15.56302 0,9.01464 2.12609,15.7331 2.21114,6.63342 5.86802,10.2903 3.74193,3.57184 8.24925,3.57184 4.76246,0 8.24925,-3.82697 3.57184,-3.82697 5.44281,-10.54543 1.956,-6.80351 1.956,-15.56302 0,-9.09969 -2.21114,-15.7331 -2.12609,-6.63342 -5.86802,-10.20526 -3.65688,-3.65688 -8.1642,-3.65688 z m 115.251387,-0.34018 v 1.70088 q -1.870963,0.68035 -3.912014,2.97653 -2.041052,2.21114 -3.57184,7.14368 l -14.967709,48.56001 q -0.68035,-0.085 -1.445745,-0.085 -0.765394,0 -1.530788,0 -0.765394,0 -1.530788,0 -0.765395,0 -1.445745,0.085 l -17.859198,-54.08786 q -0.85044,-2.63635 -2.1261,-3.57183 -1.19061,-0.93549 -2.55131,-1.02053 v -1.70088 q 2.38123,0.085 5.61289,0.17009 3.31671,0.085 6.54837,0.085 3.741932,0 6.973596,-0.085 3.316708,-0.085 5.272716,-0.17009 v 1.70088 q -2.551314,0.085 -4.082103,0.59531 -1.445744,0.51026 -1.700876,1.956 -0.170087,1.44575 0.850438,4.59237 l 12.07622,36.90901 -1.956008,3.48679 9.60995,-30.53072 q 2.041051,-6.46333 1.956007,-10.12021 -0.08504,-3.65689 -1.956007,-5.18767 -1.870964,-1.61584 -5.35776,-1.70088 v -1.70088 q 2.89149,0.085 5.442804,0.17009 2.551314,0.085 5.102628,0.085 1.956007,0 3.571839,-0.085 1.700876,-0.085 2.976533,-0.17009 z m -60.721277,0 v 1.70088 q -1.70087,0.25513 -2.38122,1.27566 -0.68035,0.93548 -0.59531,2.55131 0.17009,1.53079 0.7654,3.31671 l 13.0117,37.75945 -2.29619,3.06157 10.88561,-31.80638 1.19061,2.29618 -13.35187,40.22572 q -0.68035,-0.085 -1.44575,-0.085 -0.76539,0 -1.53079,0 -0.76539,0 -1.53078,0 -0.7654,0 -1.44575,0.085 l -19.04981,-53.23742 q -1.10557,-3.14662 -2.63636,-4.25219 -1.44574,-1.10557 -2.7214,-1.19061 v -1.70088 q 2.55131,0.085 6.03811,0.17009 3.4868,0.085 6.63342,0.085 3.40175,0 6.03811,-0.085 2.7214,-0.085 4.42227,-0.17009 z"
       id="text7"
       style="font-weight:bold;font-size:85.0438px;line-height:0;font-family:'Playfair Display';-inkscape-font-specification:'Playfair Display Bold';fill:#142952;stroke-width:23.4372;fill-opacity:1"
       transform="scale(1.0081507,0.99191518)"
       aria-label="BENBOW"
       inkscape:label="BENBOW" />
    <path
       id="path4"
       style="baseline-shift:baseline;display:inline;overflow:visible;opacity:1;vector-effect:none;fill:#142952;enable-background:accumulate;stop-color:#000000;stop-opacity:1;fill-opacity:1"
       d="m -126.57677,-13.104109 c -6.65435,0.287091 -13.36918,1.580453 -19.94659,3.974434 -35.0795,12.7678945 -53.02356,52.029752 -40.10194,87.531612 2.80132,7.696572 6.82769,14.596073 11.77344,20.552223 l 9.94461,1e-5 c -6.39,-6.265361 -11.52724,-14.049057 -14.80943,-23.066808 -11.58222,-31.821902 4.41403,-66.720635 35.70738,-78.1104816 31.29335,-11.3898494 65.981522,5.0611201 77.563744,36.8830156 8.459667,23.242743 2.205912,48.127689 -13.974858,64.294274 h 9.838159 C -55.982316,80.924303 -50.963521,55.707292 -59.538999,32.14636 -70.037816,3.3010995 -97.741255,-14.348175 -126.57677,-13.104109 Z" />
    <path
       sodipodi:type="star"
       style="fill:#fc6802;fill-opacity:1;stroke-width:0.264999"
       id="path1"
       inkscape:flatsided="false"
       sodipodi:sides="4"
       sodipodi:cx="46.068153"
       sodipodi:cy="139.94946"
       sodipodi:r1="47.75071"
       sodipodi:r2="14.325213"
       sodipodi:arg1="0.66104317"
       sodipodi:arg2="1.4464413"
       inkscape:rounded="0"
       inkscape:randomized="0"
       d="M 83.760282,169.26556 47.844978,154.16406 16.752053,177.64159 31.853561,141.72629 8.376025,110.63336 44.291329,125.73487 75.384253,102.25733 60.282746,138.17264 Z"
       inkscape:transform-center-x="-3.6198635"
       inkscape:transform-center-y="0.83031778"
       transform="matrix(-0.89473539,-0.09720379,0.09720379,-0.89473539,-95.88533,184.26944)" />
    <path
       sodipodi:type="star"
       style="fill:#fc6802;fill-opacity:1;stroke-width:0.264999"
       id="path1-8"
       inkscape:flatsided="false"
       sodipodi:sides="4"
       sodipodi:cx="46.068153"
       sodipodi:cy="139.94946"
       sodipodi:r1="47.75071"
       sodipodi:r2="11.937677"
       sodipodi:arg1="0.66104317"
       sodipodi:arg2="1.4464413"
       inkscape:rounded="0"
       inkscape:randomized="0"
       d="M 83.760282,169.26556 47.54884,151.79496 16.752053,177.64159 34.22266,141.43015 8.376025,110.63336 44.587466,128.10397 75.384253,102.25733 57.913647,138.46878 Z"
       inkscape:transform-center-x="-8.8897195"
       inkscape:transform-center-y="-12.650391"
       transform="matrix(-0.75222022,-0.96244603,0.95956997,-0.7544748,-222.80938,205.29279)" />
    <path
       sodipodi:type="star"
       style="fill:#ffffff;fill-opacity:1;stroke-width:0.264999"
       id="path3"
       inkscape:flatsided="true"
       sodipodi:sides="3"
       sodipodi:cx="-150.76851"
       sodipodi:cy="42.927143"
       sodipodi:r1="21.632442"
       sodipodi:r2="12.5701"
       sodipodi:arg1="-0.31154683"
       sodipodi:arg2="0.73565072"
       inkscape:rounded="0"
       inkscape:randomized="0"
       d="m -130.17744,36.296121 -25.14397,27.778922 -11.48527,-35.664777 z"
       inkscape:transform-center-x="32.68378"
       inkscape:transform-center-y="-4.5872651"
       transform="matrix(-0.01808878,1.0016841,0.20150215,-0.00102393,-131.76541,223.35292)" />
    <path
       sodipodi:type="star"
       style="fill:#ffffff;fill-opacity:1;stroke-width:0.264999"
       id="path3-3"
       inkscape:flatsided="true"
       sodipodi:sides="3"
       sodipodi:cx="-150.76851"
       sodipodi:cy="42.927143"
       sodipodi:r1="21.632442"
       sodipodi:r2="12.5701"
       sodipodi:arg1="-0.31154683"
       sodipodi:arg2="0.73565072"
       inkscape:rounded="0"
       inkscape:randomized="0"
       d="m -130.17744,36.296121 -25.14397,27.778922 -11.48527,-35.664777 z"
       inkscape:transform-center-x="-4.5872652"
       inkscape:transform-center-y="-32.68378"
       transform="matrix(-1.0016841,-0.01808878,0.00102393,0.20150215,-291.6992,47.06859)" />
    <path
       sodipodi:type="star"
       style="fill:#ffffff;fill-opacity:1;stroke-width:0.264999"
       id="path3-3-7"
       inkscape:flatsided="true"
       sodipodi:sides="3"
       sodipodi:cx="-150.76851"
       sodipodi:cy="42.927143"
       sodipodi:r1="21.632442"
       sodipodi:r2="12.5701"
       sodipodi:arg1="-0.31154683"
       sodipodi:arg2="0.73565072"
       inkscape:rounded="0"
       inkscape:randomized="0"
       d="m -130.17744,36.296121 -25.14397,27.778922 -11.48527,-35.664777 z"
       inkscape:transform-center-x="-32.68378"
       inkscape:transform-center-y="4.5872652"
       transform="matrix(0.01808878,-1.0016841,-0.20150215,0.00102393,-113.74831,-113.43179)" />
    <path
       sodipodi:type="star"
       style="fill:#ffffff;fill-opacity:1;stroke-width:0.264999"
       id="path3-3-7-9"
       inkscape:flatsided="true"
       sodipodi:sides="3"
       sodipodi:cx="-150.76851"
       sodipodi:cy="42.927143"
       sodipodi:r1="21.632442"
       sodipodi:r2="12.5701"
       sodipodi:arg1="-0.31154683"
       sodipodi:arg2="0.73565072"
       inkscape:rounded="0"
       inkscape:randomized="0"
       d="m -130.17744,36.296121 -25.14397,27.778922 -11.48527,-35.664777 z"
       inkscape:transform-center-x="4.5872652"
       inkscape:transform-center-y="32.683784"
       transform="matrix(1.0016841,0.01808878,-0.00102393,-0.20150215,45.80337,64.337143)" />
    <path
       d="m -372.88738,23.838862 q 17.62035,0 26.20691,8.049906 8.58657,7.960462 8.58657,22.897509 0,9.749331 -4.20384,17.083689 -4.20384,7.244916 -12.25375,11.269868 -7.96046,4.024953 -19.14088,4.024953 -1.4311,0 -3.75663,-0.08944 -2.32552,-0.08944 -4.82994,-0.08944 -2.50441,-0.08944 -4.47217,-0.08944 -3.93551,0 -7.78157,0.08944 -3.75663,0 -5.99271,0.178887 v -1.788868 q 2.86219,-0.178886 4.29328,-0.715547 1.4311,-0.53666 1.87831,-2.146641 0.53666,-1.609982 0.53666,-4.829944 V 33.319862 q 0,-3.309406 -0.53666,-4.829943 -0.44721,-1.609982 -1.96775,-2.146642 -1.4311,-0.626104 -4.20384,-0.715547 v -1.788868 q 2.23608,0.08944 5.99271,0.26833 3.84606,0.08944 7.60268,0 3.21997,-0.08944 7.24492,-0.178887 4.1144,-0.08944 6.7977,-0.08944 z m -0.0894,1.609981 q -4.11439,0 -5.3666,1.520538 -1.25221,1.520538 -1.25221,6.171594 v 44.721699 q 0,4.651057 1.25221,6.171594 1.34165,1.520538 5.45605,1.520538 7.51324,0 11.80653,-3.488292 4.38272,-3.577736 6.26103,-10.375434 1.87832,-6.797699 1.87832,-16.547029 0,-10.017661 -2.0572,-16.547029 -1.96776,-6.618811 -6.35048,-9.838773 -4.38273,-3.309406 -11.62765,-3.309406 z m 75.0431,-2.862189 q 6.08215,0 9.92822,1.699425 3.84607,1.699424 6.88714,4.114396 1.07332,0.804991 1.78887,0.804991 1.69942,0 2.23609,-5.366604 h 2.05719 q -0.17888,3.488292 -0.26833,8.497123 -0.0894,4.919386 -0.0894,13.148179 h -2.0572 q -0.6261,-5.366604 -1.96775,-9.302113 -1.25221,-4.024953 -4.7405,-6.887142 -2.14664,-2.057198 -5.36661,-3.219962 -3.13052,-1.162764 -6.35048,-1.162764 -4.91939,0 -8.40768,2.593858 -3.48829,2.504415 -5.72437,6.887142 -2.23609,4.382726 -3.30941,9.928217 -1.07332,5.456047 -1.07332,11.359311 0,16.099812 4.38273,23.523614 4.47216,7.423802 12.7904,7.423802 2.14664,0 3.75662,-0.53666 1.60998,-0.536661 2.59386,-1.252208 1.25221,-0.894434 1.69943,-1.878311 0.44721,-1.073321 0.44721,-2.772746 v -8.765453 q 0,-4.114396 -0.71554,-6.082151 -0.62611,-2.057198 -2.59386,-2.772745 -1.96776,-0.715547 -5.72438,-0.804991 v -1.788868 q 1.87831,0.08944 4.47217,0.178887 2.6833,0 5.54549,0.08944 2.86219,0 5.27716,0 3.75662,0 6.88714,-0.08944 3.13052,-0.08944 5.09828,-0.178887 v 1.788868 q -1.69943,0.08944 -2.59386,0.626104 -0.80499,0.536661 -1.16277,2.146642 -0.26833,1.609981 -0.26833,4.919387 v 17.709792 h -1.78886 q -0.0894,-1.520537 -0.71555,-3.309405 -0.53666,-1.788868 -1.87831,-1.788868 -0.62611,0 -1.69943,0.357773 -0.98387,0.26833 -3.13052,1.520538 -3.3094,1.878311 -6.97658,3.219962 -3.66718,1.252208 -7.69213,1.252208 -10.37544,0 -17.53091,-3.846066 -7.15547,-3.846066 -10.82265,-11.001538 -3.57774,-7.244915 -3.57774,-17.352019 0,-10.196548 4.1144,-17.709793 4.20384,-7.513245 11.44875,-11.717085 7.33436,-4.20384 16.81536,-4.20384 z m 86.93903,1.252208 q -0.35777,4.561613 -0.53666,8.765453 -0.0894,4.203839 -0.0894,6.439924 0,1.967755 0.0894,3.756623 0.0894,1.788868 0.17889,3.041076 h -2.0572 q -1.43109,-7.513246 -3.66718,-11.895972 -2.14664,-4.382727 -5.18772,-6.171595 -3.04107,-1.878311 -7.15547,-1.878311 h -2.0572 v 51.07218 q 0,3.577736 0.71555,5.366604 0.80499,1.788868 2.86219,2.414972 2.0572,0.53666 5.99271,0.626103 v 1.788868 q -2.77275,-0.08944 -7.4238,-0.178887 -4.56162,-0.08944 -9.57045,-0.08944 -4.91938,0 -9.30211,0.08944 -4.38273,0.08944 -7.06603,0.178887 v -1.788868 q 4.02495,-0.08944 6.08215,-0.626103 2.0572,-0.626104 2.77275,-2.414972 0.71554,-1.788868 0.71554,-5.366604 V 25.89606 h -1.96775 q -4.1144,0 -7.15547,1.878311 -3.04108,1.788868 -5.18772,6.171595 -2.14664,4.293283 -3.75662,11.895972 h -2.0572 q 0.17889,-1.252208 0.17889,-3.041076 0.0894,-1.788868 0.0894,-3.756623 0,-2.236085 -0.17889,-6.439924 -0.0894,-4.20384 -0.44721,-8.765453 4.11439,0.08944 8.94434,0.178887 4.91938,0.08944 9.83877,0.08944 4.91939,0 8.8549,0 4.02495,0 8.85489,0 4.91939,0 9.83878,-0.08944 4.91938,-0.08944 8.85489,-0.178887 z"
       id="text6"
       style="font-weight:bold;font-size:89.4434px;line-height:0;font-family:'Playfair Display';-inkscape-font-specification:'Playfair Display Bold';fill:#fc6802;stroke-width:24.6497"
       transform="scale(0.98476615,1.0154695)"
       aria-label="DGT" />
  </g>
</svg>
